<svg width="16" height="16" viewBox="0 0 16 16" fill="none" xmlns="http://www.w3.org/2000/svg">
<path d="M2.10268 14.0567H13.6875C15.0938 14.0567 15.7902 13.3602 15.7902 11.9807V3.80441C15.7902 2.42495 15.0938 1.72852 13.6875 1.72852H2.10268C0.703126 1.72852 0 2.41825 0 3.80441V11.9807C0 13.3669 0.703126 14.0567 2.10268 14.0567ZM2.11607 12.9785C1.44643 12.9785 1.07813 12.6236 1.07813 11.9272V3.85798C1.07813 3.16155 1.44643 2.80664 2.11607 2.80664H13.6741C14.337 2.80664 14.7121 3.16155 14.7121 3.85798V11.9272C14.7121 12.6236 14.337 12.9785 13.6741 12.9785H2.11607ZM9.65623 13.1861H10.7076V2.60575H9.65623V13.1861ZM11.9933 5.29101H13.4263C13.6339 5.29101 13.8081 5.11021 13.8081 4.91601C13.8081 4.71512 13.6339 4.54101 13.4263 4.54101H11.9933C11.7924 4.54101 11.6116 4.71512 11.6116 4.91601C11.6116 5.11021 11.7924 5.29101 11.9933 5.29101ZM11.9933 7.02539H13.4263C13.6339 7.02539 13.8081 6.84459 13.8081 6.64369C13.8081 6.4428 13.6339 6.27539 13.4263 6.27539H11.9933C11.7924 6.27539 11.6116 6.4428 11.6116 6.64369C11.6116 6.84459 11.7924 7.02539 11.9933 7.02539ZM11.9933 8.75307H13.4263C13.6339 8.75307 13.8081 8.58564 13.8081 8.38478C13.8081 8.18387 13.6339 8.00975 13.4263 8.00975H11.9933C11.7924 8.00975 11.6116 8.18387 11.6116 8.38478C11.6116 8.58564 11.7924 8.75307 11.9933 8.75307Z" fill="#0A1217" fill-opacity="0.6"/>
</svg>
