<?xml version="1.0" encoding="utf-8"?>
<svg xmlns="http://www.w3.org/2000/svg" xmlns:xlink="http://www.w3.org/1999/xlink" width="340px" height="147px" viewBox="0 0 340 147" version="1.1">
    <title>Group</title>
    <g id="P" stroke="none" stroke-width="1" fill="none" fill-rule="evenodd">
        <g id="Group" fill-rule="nonzero">
            <path d="M316.937542,118.607477 L313.284083,124.560748 L309.630625,131.200935 L306.205507,124.78972 L302.552048,118.607477 L297.300201,118.607477 L297.300201,119.065421 L307.347213,135.32243 L307.347213,146.771028 L311.914036,146.771028 L311.914036,135.32243 L321.961048,119.065421 L321.961048,118.607477 L316.937542,118.607477 L316.937542,118.607477 Z M288.851578,118.607477 L268.072532,118.607477 L268.072532,122.957944 L276.064473,122.957944 L276.064473,146.542056 L280.631296,146.542056 L280.631296,122.728972 L288.623237,122.728972 L288.623237,118.607477 L288.851578,118.607477 Z M245.010074,146.542056 L258.482203,146.542056 L258.482203,142.878505 L254.143721,142.878505 L254.143721,122.271028 L258.253862,122.271028 L258.253862,118.607477 L245.466756,118.607477 L245.466756,122.271028 L249.576897,122.271028 L249.576897,142.878505 L245.238415,142.878505 L245.238415,146.542056 L245.010074,146.542056 Z M223.774345,147 C230.396239,147 234.734721,143.794393 234.734721,138.528037 C234.734721,133.948598 231.309604,131.200935 224.002686,130.285047 C219.435863,129.827103 217.609134,128.682243 217.609134,126.163551 C217.609134,123.873832 219.664204,122.5 223.317663,122.5 C227.199463,122.5 229.026192,124.102804 229.482874,126.621495 L233.821357,126.621495 C233.364674,121.584112 229.482874,118.149533 223.317663,118.149533 C216.92411,118.149533 212.813969,121.35514 212.813969,126.163551 C212.813969,130.971963 216.239087,133.719626 223.089322,134.406542 C227.884486,134.864486 229.939557,136.238318 229.939557,138.528037 C229.939557,141.046729 227.427804,142.649533 223.546004,142.649533 C219.435863,142.649533 217.152451,141.046729 216.92411,138.070093 L212.357287,138.070093 C212.813969,143.336449 216.92411,147 223.774345,147 Z M184.042982,122.5 L190.893217,122.5 C194.089993,122.5 196.145064,124.331776 196.145064,127.537383 C196.145064,130.742991 194.318334,132.574766 190.893217,132.574766 L184.042982,132.574766 L184.042982,122.5 Z M195.231699,136.238318 C198.885158,134.864486 200.940228,131.88785 200.940228,127.537383 C200.940228,122.042056 197.058428,118.607477 191.349899,118.607477 L179.7045,118.607477 L179.7045,146.542056 L184.271323,146.542056 L184.271323,136.925234 L190.664876,136.925234 L197.515111,146.542056 L202.766958,146.542056 L202.766958,146.313084 L195.231699,136.238318 Z M153.673606,142.420561 L153.673606,134.406542 L165.319006,134.406542 L165.319006,130.285047 L153.673606,130.285047 L153.673606,122.957944 L166.00403,122.957944 L166.00403,118.607477 L149.106783,118.607477 L149.106783,146.542056 L166.460712,146.542056 L166.460712,142.191589 L153.673606,142.191589 L153.673606,142.420561 Z M132.89456,118.607477 L128.784419,128.224299 L125.13096,138.528037 L121.249161,128.224299 L117.139019,118.378505 L112.115514,118.378505 L112.115514,118.836449 L124.217596,146.771028 L125.815984,146.771028 L137.918066,118.836449 L137.918066,118.378505 L132.89456,118.378505 L132.89456,118.607477 Z M89.2813969,146.542056 L102.753526,146.542056 L102.753526,142.878505 L98.4150437,142.878505 L98.4150437,122.271028 L102.525185,122.271028 L102.525185,118.607477 L89.7380792,118.607477 L89.7380792,122.271028 L93.6198791,122.271028 L93.6198791,142.878505 L89.2813969,142.878505 L89.2813969,146.542056 Z M72.3841504,118.607477 L72.3841504,128.911215 L72.6124916,137.154206 L55.7152451,118.607477 L54.116857,118.607477 L54.116857,146.542056 L58.6836803,146.542056 L58.6836803,136.46729 L58.4553392,127.995327 L75.3525856,146.542056 L76.9509738,146.542056 L76.9509738,118.607477 L72.3841504,118.607477 Z M29.2276696,147 C35.8495635,147 39.9597045,142.649533 39.9597045,136.009346 L39.9597045,118.607477 L35.3928811,118.607477 L35.3928811,136.238318 C35.3928811,140.359813 33.1094694,142.878505 29.2276696,142.878505 C25.3458697,142.878505 22.8341169,140.359813 22.8341169,136.238318 L22.8341169,118.607477 L18.2672935,118.607477 L18.2672935,136.009346 C18.2672935,142.649533 22.6057757,147 29.2276696,147 Z" id="Shape" fill="#4780B5"/>
            <path d="M302.323707,78.5373832 L302.323707,62.9672897 L335.889859,62.9672897 L335.889859,40.0700935 L302.323707,40.0700935 L302.323707,25.1869159 L338.858294,25.1869159 L338.858294,1.60280374 L276.292814,1.60280374 L276.292814,101.892523 L340,101.892523 L340,78.5373832 L302.323707,78.5373832 Z M217.837475,103.495327 C245.238415,103.495327 262.592344,87.4672897 267.159167,63.6542056 L241.356615,63.6542056 C237.703156,72.8130841 229.711216,78.5373832 218.750839,78.5373832 C203.908664,78.5373832 194.089993,67.7757009 194.089993,51.7476636 C194.089993,35.4906542 203.908664,24.9579439 218.750839,24.9579439 C228.797851,24.9579439 236.561451,29.7663551 240.443251,38.0093458 L266.474144,38.0093458 C261.222297,15.1121495 244.32505,0 217.837475,0 C188.381464,0 167.602418,21.2943925 167.602418,51.7476636 C167.602418,82.2009346 188.381464,103.495327 217.837475,103.495327 Z M119.19409,42.1308411 L128.099396,66.6308411 L109.603761,66.6308411 L119.19409,42.1308411 Z M124.902619,0.457943925 L113.485561,0.457943925 L66.4472801,100.518692 L66.4472801,101.892523 L94.5332438,101.892523 L100.013432,89.0700935 L137.689725,89.0700935 L143.398254,101.892523 L171.484218,101.892523 L171.484218,100.518692 L124.902619,0.457943925 Z M41.3297515,51.7476636 L26.2592344,51.7476636 L26.2592344,24.271028 L41.3297515,24.271028 C49.7783747,24.271028 54.8018805,29.0794393 54.8018805,37.7803738 C54.8018805,46.4813084 49.7783747,51.7476636 41.3297515,51.7476636 Z M43.8415044,1.60280374 L2.84217094e-14,1.60280374 L2.84217094e-14,101.892523 L26.2592344,101.892523 L26.2592344,74.1869159 L44.0698455,74.1869159 C66.4472801,74.1869159 81.5177972,59.7616822 81.5177972,37.7803738 C81.289456,16.0280374 66.6756212,1.60280374 43.8415044,1.60280374 Z" id="Shape" fill="#002D73"/>
        </g>
    </g>
</svg>